    {
      "accessors": [
        {
          "bufferView": 2,
          "componentType": 5126,
          "count": 3182,
          "max": [
            21.55590057373047,
            36.11349868774414,
            17.17919921875
          ],
          "min": [
            -21.5559024810791,
            0.013519000262022018,
            -30.49080467224121
          ],
          "type": "VEC3"
        },
        {
          "bufferView": 2,
          "byteOffset": 38184,
          "componentType": 5126,
          "count": 3182,
          "max": [
            0.9999828338623047,
            0.999994695186615,
            0.9999247193336487
          ],
          "min": [
            -0.9999828338623047,
            -1.0,
            -0.999650776386261
          ],
          "type": "VEC3"
        },
        {
          "bufferView": 1,
          "componentType": 5126,
          "count": 3182,
          "max": [
            1.0,
            0.9893890023231506
          ],
          "min": [
            0.0,
            0.007785975933074951
          ],
          "type": "VEC2"
        },
        {
          "bufferView": 0,
          "componentType": 5125,
          "count": 14454,
          "type": "SCALAR"
        },
        {
          "bufferView": 2,
          "byteOffset": 76368,
          "componentType": 5126,
          "count": 60,
          "max": [
            6.755390167236328,
            26.084197998046875,
            16.703800201416016
          ],
          "min": [
            -6.755390167236328,
            19.397598266601563,
            11.359102249145508
          ],
          "type": "VEC3"
        },
        {
          "bufferView": 2,
          "byteOffset": 77088,
          "componentType": 5126,
          "count": 60,
          "max": [
            0.9148920774459839,
            0.4901556670665741,
            0.9453344941139221
          ],
          "min": [
            -0.9148920774459839,
            0.006446164567023516,
            0.3724088668823242
          ],
          "type": "VEC3"
        },
        {
          "bufferView": 1,
          "byteOffset": 25456,
          "componentType": 5126,
          "count": 60,
          "max": [
            0.48611000180244446,
            1.9770699739456177
          ],
          "min": [
            0.013891000300645828,
            1.7661099433898926
          ],
          "type": "VEC2"
        },
        {
          "bufferView": 0,
          "byteOffset": 57816,
          "componentType": 5125,
          "count": 240,
          "type": "SCALAR"
        },
        {
          "bufferView": 2,
          "byteOffset": 77808,
          "componentType": 5126,
          "count": 29,
          "max": [
            2.738909959793091,
            20.2825984954834,
            17.15519905090332
          ],
          "min": [
            -2.738909959793091,
            16.118898391723633,
            14.843700408935547
          ],
          "type": "VEC3"
        },
        {
          "bufferView": 2,
          "byteOffset": 78156,
          "componentType": 5126,
          "count": 29,
          "max": [
            0.48529914021492004,
            0.4790177643299103,
            0.9987490773200989
          ],
          "min": [
            -0.48529914021492004,
            -0.7946462631225586,
            0.560000479221344
          ],
          "type": "VEC3"
        },
        {
          "bufferView": 1,
          "byteOffset": 25936,
          "componentType": 5126,
          "count": 29,
          "max": [
            0.481469988822937,
            2.98471999168396
          ],
          "min": [
            0.01853499934077263,
            2.773360013961792
          ],
          "type": "VEC2"
        },
        {
          "bufferView": 0,
          "byteOffset": 58776,
          "componentType": 5125,
          "count": 108,
          "type": "SCALAR"
        }
      ],
      "asset": {
        "extras": {
          "author": "RoxanneTheArtist945 (https://sketchfab.com/RoxanneTheArtist945andFriends)",
          "license": "CC-BY-4.0 (http://creativecommons.org/licenses/by/4.0/)",
          "source": "https://sketchfab.com/3d-models/eevee-c0a498a095434e87ad122099de1c5156",
          "title": "Model"
        },
        "generator": "Sketchfab-15.96.0",
        "version": "2.0"
      },
      "bufferViews": [
        {
          "buffer": 0,
          "byteLength": 59208,
          "name": "floatBufferViews",
          "target": 34963
        },
        {
          "buffer": 0,
          "byteLength": 26168,
          "byteOffset": 59208,
          "byteStride": 8,
          "name": "floatBufferViews",
          "target": 34962
        },
        {
          "buffer": 0,
          "byteLength": 78504,
          "byteOffset": 85376,
          "byteStride": 12,
          "name": "floatBufferViews",
          "target": 34962
        }
      ],
      "buffers": [
        {
          "byteLength": 163880,
          "uri": "scene.bin"
        }
      ],
      "images": [
        {
          "uri": "textures/Material_12_baseColor.png"
        },
        {
          "uri": "textures/Material_13_baseColor.png"
        },
        {
          "uri": "textures/Material_14_baseColor.png"
        }
      ],
      "materials": [
        {
          "doubleSided": true,
          "name": "Material_12",
          "pbrMetallicRoughness": {
            "baseColorTexture": {
              "index": 0
            },
            "metallicFactor": 0.0,
            "roughnessFactor": 0.892971
          }
        },
        {
          "doubleSided": true,
          "name": "Material_13",
          "pbrMetallicRoughness": {
            "baseColorTexture": {
              "index": 1
            },
            "metallicFactor": 0.0,
            "roughnessFactor": 0.892971
          }
        },
        {
          "doubleSided": true,
          "name": "Material_14",
          "pbrMetallicRoughness": {
            "baseColorTexture": {
              "index": 2
            },
            "metallicFactor": 0.0,
            "roughnessFactor": 0.892971
          }
        }
      ],
      "meshes": [
        {
          "name": "Model_Material__12_0",
          "primitives": [
            {
              "attributes": {
                "NORMAL": 1,
                "POSITION": 0,
                "TEXCOORD_0": 2
              },
              "indices": 3,
              "material": 0,
              "mode": 4
            }
          ]
        },
        {
          "name": "Model_Material__13_0",
          "primitives": [
            {
              "attributes": {
                "NORMAL": 5,
                "POSITION": 4,
                "TEXCOORD_0": 6
              },
              "indices": 7,
              "material": 1,
              "mode": 4
            }
          ]
        },
        {
          "name": "Model_Material__14_0",
          "primitives": [
            {
              "attributes": {
                "NORMAL": 9,
                "POSITION": 8,
                "TEXCOORD_0": 10
              },
              "indices": 11,
              "material": 2,
              "mode": 4
            }
          ]
        }
      ],
      "nodes": [
        {
          "children": [
            1
          ],
          "matrix": [
            1.0,
            0.0,
            0.0,
            0.0,
            0.0,
            2.220446049250313e-16,
            -1.0,
            0.0,
            0.0,
            1.0,
            2.220446049250313e-16,
            0.0,
            0.0,
            0.0,
            0.0,
            1.0
          ],
          "name": "Sketchfab_model"
        },
        {
          "children": [
            2
          ],
          "matrix": [
            0.009999999776482582,
            0.0,
            0.0,
            0.0,
            0.0,
            2.2204459996194763e-18,
            0.009999999776482582,
            0.0,
            0.0,
            -0.009999999776482582,
            2.2204459996194763e-18,
            0.0,
            0.0,
            0.0,
            0.0,
            1.0
          ],
          "name": "USDRoot"
        },
        {
          "children": [
            3
          ],
          "name": "scene"
        },
        {
          "children": [
            4
          ],
          "matrix": [
            100.0,
            0.0,
            0.0,
            0.0,
            0.0,
            100.0,
            0.0,
            0.0,
            0.0,
            0.0,
            100.0,
            0.0,
            0.0,
            0.0,
            0.0,
            1.0
          ],
          "name": "Meshes"
        },
        {
          "children": [
            5
          ],
          "matrix": [
            1.0,
            0.0,
            0.0,
            0.0,
            0.0,
            2.220446049250313e-16,
            -1.0,
            0.0,
            0.0,
            1.0,
            2.220446049250313e-16,
            0.0,
            0.0,
            0.0,
            0.0,
            1.0
          ],
          "name": "Sketchfab_model"
        },
        {
          "children": [
            6,
            8,
            10
          ],
          "matrix": [
            0.009999999776482582,
            0.0,
            0.0,
            0.0,
            0.0,
            2.2204459996194763e-18,
            0.009999999776482582,
            0.0,
            0.0,
            -0.009999999776482582,
            2.2204459996194763e-18,
            0.0,
            0.0,
            0.0,
            0.0,
            1.0
          ],
          "name": "USDRoot"
        },
        {
          "children": [
            7
          ],
          "name": "Model_Material__12_0"
        },
        {
          "mesh": 0,
          "name": "Model_Material__12_0"
        },
        {
          "children": [
            9
          ],
          "name": "Model_Material__13_0"
        },
        {
          "mesh": 1,
          "name": "Model_Material__13_0"
        },
        {
          "children": [
            11
          ],
          "name": "Model_Material__14_0"
        },
        {
          "mesh": 2,
          "name": "Model_Material__14_0"
        }
      ],
      "samplers": [
        {
          "magFilter": 9729,
          "minFilter": 9987,
          "wrapS": 10497,
          "wrapT": 10497
        }
      ],
      "scene": 0,
      "scenes": [
        {
          "name": "Sketchfab_Scene",
          "nodes": [
            0
          ]
        }
      ],
      "textures": [
        {
          "sampler": 0,
          "source": 0
        },
        {
          "sampler": 0,
          "source": 1
        },
        {
          "sampler": 0,
          "source": 2
        }
      ]
    }
